<svg xmlns="http://www.w3.org/2000/svg" xmlns:xlink="http://www.w3.org/1999/xlink" version="1.0" x="0" y="0" width="2400" height="759.3184961457949" viewBox="57.24920684814453 89.32759887695312 225.50158630371095 71.34480224609375" preserveAspectRatio="xMidYMid meet" color-interpolation-filters="sRGB"><g><defs><linearGradient id="92" x1="0%" y1="0%" x2="100%" y2="0%"><stop offset="0%" stop-color="#fa71cd"></stop> <stop offset="100%" stop-color="#9b59b6"></stop></linearGradient><linearGradient id="93" x1="0%" y1="0%" x2="100%" y2="0%"><stop offset="0%" stop-color="#f9d423"></stop> <stop offset="100%" stop-color="#f83600"></stop></linearGradient><linearGradient id="94" x1="0%" y1="0%" x2="100%" y2="0%"><stop offset="0%" stop-color="#0064d2"></stop> <stop offset="100%" stop-color="#1cb0f6"></stop></linearGradient><linearGradient id="95" x1="0%" y1="0%" x2="100%" y2="0%"><stop offset="0%" stop-color="#f00978"></stop> <stop offset="100%" stop-color="#3f51b1"></stop></linearGradient><linearGradient id="96" x1="0%" y1="0%" x2="100%" y2="0%"><stop offset="0%" stop-color="#7873f5"></stop> <stop offset="100%" stop-color="#ec77ab"></stop></linearGradient><linearGradient id="97" x1="0%" y1="0%" x2="100%" y2="0%"><stop offset="0%" stop-color="#f9d423"></stop> <stop offset="100%" stop-color="#e14fad"></stop></linearGradient><linearGradient id="98" x1="0%" y1="0%" x2="100%" y2="0%"><stop offset="0%" stop-color="#009efd"></stop> <stop offset="100%" stop-color="#2af598"></stop></linearGradient><linearGradient id="99" x1="0%" y1="0%" x2="100%" y2="0%"><stop offset="0%" stop-color="#ffcc00"></stop> <stop offset="100%" stop-color="#00b140"></stop></linearGradient><linearGradient id="100" x1="0%" y1="0%" x2="100%" y2="0%"><stop offset="0%" stop-color="#d51007"></stop> <stop offset="100%" stop-color="#ff8177"></stop></linearGradient><linearGradient id="102" x1="0%" y1="0%" x2="100%" y2="0%"><stop offset="0%" stop-color="#a2b6df"></stop> <stop offset="100%" stop-color="#0c3483"></stop></linearGradient><linearGradient id="103" x1="0%" y1="0%" x2="100%" y2="0%"><stop offset="0%" stop-color="#7ac5d8"></stop> <stop offset="100%" stop-color="#eea2a2"></stop></linearGradient><linearGradient id="104" x1="0%" y1="0%" x2="100%" y2="0%"><stop offset="0%" stop-color="#00ecbc"></stop> <stop offset="100%" stop-color="#007adf"></stop></linearGradient><linearGradient id="105" x1="0%" y1="0%" x2="100%" y2="0%"><stop offset="0%" stop-color="#b88746"></stop> <stop offset="100%" stop-color="#fdf5a6"></stop></linearGradient></defs><g fill="#333333" class="icon-text-wrapper icon-svg-group iconsvg" transform="translate(59.46000671386719,91.53839874267578)"><g class="iconsvg-imagesvg" transform="translate(0,0)"><g><rect fill="#333333" fill-opacity="0" stroke-width="2" x="0" y="0" width="60" height="66.92320562154927" class="image-rect"></rect> <svg x="0" y="0" width="60" height="66.92320562154927" filtersec="colorsb9453574240" class="image-svg-svg primary" style="overflow: visible;"><svg xmlns="http://www.w3.org/2000/svg" viewBox="3 0 52 58"><path fill="#1582c7" d="M29 58L3 45V13l26 13z"></path><path fill="#333333" d="M29 58l26-13V13L29 26z"></path><path fill="#79b652" d="M3 13L28 0l27 13-26 13z"></path></svg></svg> </g></g> <g transform="translate(67,7.211601257324219)"><g fill-rule="" class="tp-name iconsvg-namesvg"><g transform="scale(1)"><g><path d="M6.72 0L17.04 0 17.04-41.64 23.16-41.64 23.16-51.54 0.6-51.54 0.6-41.64 6.72-41.64ZM25.56 0L35.52 0 35.52-51.54 25.56-51.54ZM50.28 0.48C54.12 0.48 56.96-1.12 58.8-4.32L60.54 0 64.68 0 64.68-30 52.08-30 52.08-21.12 54.84-21.12 54.84-13.74C54.84-11.16 54.45-9 52.14-9 49.82-9 49.44-11.16 49.44-13.74L49.44-38.7C49.44-41.26 50.42-42.54 52.38-42.54 54.35-42.54 54.72-40.77 54.72-38.64L54.72-34.02 64.8-34.02C64.8-44.97 62.68-52.02 51.9-52.02 43.1-52.02 39.24-46.62 39.24-37.56L39.24-15.36C39.24-6.14 41.82 0.48 50.28 0.48ZM68.76 0L79.02 0 79.02-23.4 83.88-23.4 83.88 0 94.14 0 94.14-51.54 83.88-51.54 83.88-33.12 79.02-33.12 79.02-51.54 68.76-51.54ZM106.98 0.48C111.18 0.48 112.48-1.4 113.76-4.68L113.76 0 124.26 0 124.26-43.92 113.82-43.92 113.76-13.32 113.76-12.96C113.76-10.22 113.75-7.74 111.3-7.74 109.43-7.74 108.96-8.98 108.96-11.07L108.96-43.92 98.4-43.92 98.4-11.22C98.4-3.99 100.01 0.48 106.98 0.48ZM154.68-11.46L154.68-32.64C154.68-39.89 152.23-44.4 145.14-44.4 142.9-44.4 140.94-43.54 139.26-41.82L139.26-51.84 128.46-51.84 128.46 0 139.26 0 139.26-4.68C140.5-1.24 142.56 0.48 145.44 0.48 152.01 0.48 154.68-4.71 154.68-11.46ZM141.9-7.68C139.27-7.68 139.26-10.35 139.26-13.38L139.26-31.8C139.26-34.3 139.57-36.3 141.84-36.3 144-36.3 144.06-34.16 144.06-31.68L144.06-13.38C144.06-10.6 144.39-7.68 141.9-7.68Z" transform="translate(-0.6000000238418579, 52.02000045776367)"></path></g> </g></g> </g></g><defs v-gra="od"></defs></g></svg>